<?xml version="1.0" standalone="no"?>
<!DOCTYPE svg PUBLIC "-//W3C//DTD SVG 20010904//EN"
 "http://www.w3.org/TR/2001/REC-SVG-20010904/DTD/svg10.dtd">
<svg version="1.0" xmlns="http://www.w3.org/2000/svg"
 width="600.000000pt" height="600.000000pt" viewBox="0 0 600.000000 600.000000"
 preserveAspectRatio="xMidYMid meet">
<metadata>
Created by potrace 1.14, written by Peter Selinger 2001-2017
</metadata>
<g transform="translate(0.000000,600.000000) scale(0.100000,-0.100000)"
fill="#000000" stroke="none">
<path d="M0 2930 l0 -2930 2835 0 2835 0 0 150 0 150 165 0 165 0 0 890 0 890
-55 0 -55 0 0 555 0 555 -110 0 -110 0 0 110 0 110 -335 0 -335 0 0 445 0 445
-110 0 -110 0 0 225 0 225 -110 0 -110 0 0 110 0 110 -225 0 -225 0 0 110 0
110 -1225 0 -1225 0 0 -110 0 -110 -220 0 -220 0 0 110 0 110 -110 0 -110 0 0
110 0 110 -110 0 -110 0 0 -110 0 -110 -110 0 -110 0 0 110 0 110 -110 0 -110
0 0 110 0 110 -115 0 -115 0 0 115 0 115 -55 0 -55 0 0 -2930z m550 2150 l0
-110 -105 0 -105 0 0 110 0 110 105 0 105 0 0 -110z m0 -1005 l0 -665 -105 0
-105 0 0 665 0 665 105 0 105 0 0 -665z m3787 278 c-2 -32 -3 -6 -3 57 0 63 1
89 3 58 2 -32 2 -84 0 -115z m-2939 -280 c-32 -2 -86 -2 -120 0 -35 2 -9 3 57
3 66 0 94 -1 63 -3z m3275 0 l-113 -4 -2 -222 -3 -222 -2 215 c-2 118 -1 220
1 227 4 10 34 12 118 11 l113 -2 -112 -3z m-1505 -220 c-32 -2 -84 -2 -115 0
-32 2 -6 3 57 3 63 0 89 -1 58 -3z m1169 -390 c-2 -32 -3 -6 -3 57 0 63 1 89
3 58 2 -32 2 -84 0 -115z"/>
</g>
</svg>
